<?xml version="1.0" encoding="utf-8"?>
<!-- Generator: Adobe Illustrator 23.0.0, SVG Export Plug-In . SVG Version: 6.00 Build 0)  -->
<svg version="1.1" id="Calque_1" xmlns="http://www.w3.org/2000/svg" xmlns:xlink="http://www.w3.org/1999/xlink" x="0px" y="0px"
	 viewBox="0 0 500 250" style="enable-background:new 0 0 500 250;" xml:space="preserve">
<style type="text/css">
	.st0{fill:#8ECAE6;}
	.st1{fill:#219EBC;}
	.st2{fill:#023047;}
	.st3{fill:#FFB703;}
	.st4{fill:#FB8500;}
	.st5{fill:#FFA500;}
	.st6{fill:#E5A426;}
	.st7{fill:none;stroke:#E5A426;stroke-width:3.5358;stroke-miterlimit:10;}
	.st8{fill:none;stroke:#FFA500;stroke-width:1.4143;stroke-miterlimit:10;}
	.st9{fill:none;stroke:#FFA500;stroke-width:4;stroke-miterlimit:10;}
	.st10{fill:#FFFFFF;}
	.st11{fill:none;stroke:#FFFFFF;stroke-width:3.5358;stroke-miterlimit:10;}
	.st12{fill:none;}
	.st13{fill:#FFFFFF;stroke:#FFFFFF;stroke-miterlimit:10;}
</style>
<rect x="895.3" y="-514.1" class="st0" width="62.5" height="220"/>
<rect x="957.8" y="-514.1" class="st1" width="62.5" height="220"/>
<rect x="1020.3" y="-514.1" class="st2" width="62.5" height="220"/>
<rect x="1116.5" y="-514.1" class="st3" width="15" height="220"/>
<rect x="1082.8" y="-514.1" class="st4" width="33.7" height="220"/>
<text transform="matrix(1 0 0 1 917.2 -188.36)" style="font-family:'ArialMT'; font-size:6px;">Exported from Coolors.co</text>
<text transform="matrix(1 0 0 1 1247.8708 -188.36)" style="font-family:'ArialMT'; font-size:6px;">https://coolors.co/8ecae6-219ebc-023047-ffb703-fb8500</text>
<rect x="457.3" y="-464.9" class="st1" width="176.8" height="176.8"/>
<rect x="634.1" y="-465.1" class="st2" width="176.8" height="176.8"/>
<text transform="matrix(1 0 0 1 484.6656 -404.0556)" class="st2" style="font-family:'Raleway-ExtraBold'; font-size:20.1888px;">Lorem ipsum</text>
<text transform="matrix(1 0 0 1 500.9596 -390.1435)" class="st2" style="font-family:'Raleway-SemiBold'; font-size:5.6574px;">jhdgh qgdgdr that fgg jhsgfh d dhuy </text>
<text transform="matrix(1 0 0 1 533.4796 -376.5293)" class="st4" style="font-family:'Raleway-Medium'; font-size:4.9502px;">Lorem ipsum</text>
<path class="st3" d="M584.7-323.4h-72.2c-5.9,0-10.7-4.8-10.7-10.7l0,0c0-5.9,4.8-10.7,10.7-10.7h72.2c5.9,0,10.7,4.8,10.7,10.7l0,0
	C595.4-328.2,590.6-323.4,584.7-323.4z"/>
<text transform="matrix(1 0 0 1 525.4176 -331.5976)" class="st2" style="font-family:'ArialMT'; font-size:8.486px;">Lorem ipsum</text>
<circle class="st5" cx="620.2" cy="-445.8" r="8.6"/>
<ellipse class="st6" cx="608.6" cy="-439.8" rx="16.2" ry="2.6"/>
<line class="st7" x1="462.6" y1="-342.8" x2="501" y2="-303.1"/>
<line class="st8" x1="484.7" y1="-298.2" x2="501" y2="-308.6"/>
<path class="st9" d="M628.8-329.4c0,0-23.8,0-17.1,26C611.6-303.4,604.3-329.4,628.8-329.4z"/>
<text transform="matrix(1 0 0 1 662.983 -405.8969)" class="st0" style="font-family:'Raleway-ExtraBold'; font-size:20.1888px;">Lorem ipsum</text>
<text transform="matrix(1 0 0 1 679.277 -391.9848)" class="st0" style="font-family:'Raleway-SemiBold'; font-size:5.6574px;">jhdgh qgdgdr that fgg jhsgfh d dhuy </text>
<text transform="matrix(1 0 0 1 711.7965 -378.3706)" style="fill:#C68B22; font-family:'Raleway-Medium'; font-size:4.9502px;">Lorem ipsum</text>
<path class="st3" d="M763-325.2h-72.2c-5.9,0-10.7-4.8-10.7-10.7l0,0c0-5.9,4.8-10.7,10.7-10.7H763c5.9,0,10.7,4.8,10.7,10.7l0,0
	C773.7-330,768.9-325.2,763-325.2z"/>
<text transform="matrix(1 0 0 1 703.734 -333.4389)" class="st2" style="font-family:'ArialMT'; font-size:8.486px;">Lorem ipsum</text>
<circle class="st10" cx="798.5" cy="-447.6" r="8.6"/>
<ellipse class="st5" cx="786.9" cy="-441.7" rx="16.2" ry="2.6"/>
<line class="st11" x1="640.9" y1="-344.7" x2="679.3" y2="-305"/>
<line class="st12" x1="663" y1="-300.1" x2="679.3" y2="-310.5"/>
<path class="st13" d="M807.1-331.2c0,0-23.8,0-17.1,26C790-305.3,782.6-331.2,807.1-331.2z"/>
</svg>
